<?xml version="1.0" standalone="no"?>
<!DOCTYPE svg PUBLIC "-//W3C//DTD SVG 20010904//EN"
 "http://www.w3.org/TR/2001/REC-SVG-20010904/DTD/svg10.dtd">
<svg version="1.0" xmlns="http://www.w3.org/2000/svg"
 width="1600.000000pt" height="1600.000000pt" viewBox="0 0 1600.000000 1600.000000"
 preserveAspectRatio="xMidYMid meet">
<metadata>
Created by potrace 1.11, written by Peter Selinger 2001-2013
</metadata>
<g transform="translate(0.000000,1600.000000) scale(0.100000,-0.100000)"
fill="#000000" stroke="none">
<path d="M4237 13982 c-8 -10 -122 -172 -253 -362 -261 -377 -280 -415 -270
-512 25 -241 311 -364 487 -209 24 21 111 134 193 251 109 156 153 211 165
207 14 -3 4117 -2706 4198 -2765 15 -11 25 -23 21 -27 -3 -4 -779 -145 -1725
-315 -945 -170 -1746 -317 -1781 -326 -207 -55 -364 -281 -332 -481 5 -28 178
-707 385 -1508 207 -801 374 -1462 372 -1470 -3 -7 -558 -842 -1234 -1856
-676 -1014 -1236 -1862 -1245 -1884 -28 -67 -38 -116 -38 -195 0 -296 235
-530 532 -530 145 0 267 50 369 150 67 65 470 667 2152 3210 264 399 486 731
493 739 7 8 16 12 20 9 11 -12 123 -472 124 -508 0 -19 -88 -698 -196 -1508
l-197 -1473 16 -82 c23 -113 66 -196 146 -276 168 -169 401 -208 620 -104 132
63 249 206 280 343 17 78 411 3045 411 3098 0 28 -5 86 -11 129 -6 43 -208
863 -450 1823 -241 959 -435 1748 -431 1751 4 4 511 98 1127 209 616 111 1140
206 1165 212 225 54 380 286 341 508 -18 101 -63 183 -140 258 -51 49 -624
431 -2541 1694 -1361 897 -2539 1672 -2617 1723 -129 85 -143 92 -156 77z"/>
<path d="M4991 11965 c-378 -86 -645 -360 -711 -729 -5 -33 -15 -63 -21 -67
-6 -3 -41 -9 -78 -13 -265 -24 -535 -161 -648 -327 -54 -80 -64 -120 -73 -300
-14 -266 -53 -455 -128 -608 -45 -93 -123 -177 -175 -186 -39 -8 -51 -35 -40
-99 7 -41 3 -41 138 -26 360 41 645 212 722 433 9 25 19 113 24 212 5 94 15
208 23 255 35 200 102 371 179 456 54 59 72 56 81 -15 9 -71 61 -214 103 -286
250 -429 791 -571 1230 -324 106 60 253 206 317 314 172 295 160 659 -34 939
-119 173 -294 297 -502 357 -97 27 -314 35 -407 14z"/>
</g>
</svg>
